<svg width="61" height="27" viewBox="0 0 61 27" fill="none" xmlns="http://www.w3.org/2000/svg">
<g id="ACTIVEBOX">
<path d="M0.453613 25.7472V0.706514H6.97829C9.64721 0.706514 11.6631 1.25686 13.026 2.35755C14.4002 3.44677 15.0873 5.03474 15.0873 7.12147C15.0873 8.63491 14.7068 9.89039 13.9459 10.8879C13.185 11.8854 12.1117 12.5217 10.7261 12.7969C12.2934 13.0033 13.5995 13.6912 14.6444 14.8607C15.6892 16.0187 16.2116 17.3487 16.2116 18.8507C16.2116 20.9833 15.5245 22.6687 14.1503 23.907C12.7875 25.1338 10.8851 25.7472 8.44336 25.7472H0.453613ZM1.37354 13.3816V24.8185H8.54557C10.6466 24.8185 12.2934 24.2968 13.4859 23.2534C14.6898 22.1986 15.2917 20.7425 15.2917 18.8851C15.2917 17.3028 14.7125 16.0015 13.5541 14.9811C12.3956 13.9492 10.8454 13.416 8.90332 13.3816H1.37354ZM1.37354 12.4529H7.319C9.57907 12.4529 11.2826 12.0172 12.4297 11.1459C13.5768 10.263 14.1503 8.89862 14.1503 7.05267C14.1503 3.49837 11.8278 1.69255 7.18272 1.63522H1.37354V12.4529Z" fill="white"/>
<path d="M39.0736 15.1015C39.0736 17.2684 38.6874 19.1889 37.9151 20.8629C37.1542 22.5254 36.0639 23.8152 34.6443 24.7325C33.2246 25.6383 31.5892 26.0912 29.738 26.0912C26.9441 26.0912 24.6841 25.0879 22.9578 23.0815C21.2315 21.075 20.3683 18.3691 20.3683 14.9639V11.3522C20.3683 9.19672 20.7488 7.28198 21.5097 5.60802C22.282 3.93405 23.378 2.64419 24.7976 1.73841C26.2286 0.821169 27.8641 0.362549 29.7039 0.362549C31.5551 0.362549 33.1906 0.821169 34.6102 1.73841C36.0412 2.64419 37.1428 3.93979 37.9151 5.62522C38.6874 7.29918 39.0736 9.20819 39.0736 11.3522V15.1015ZM38.1536 11.3178C38.1536 8.29095 37.3927 5.86599 35.8708 4.04298C34.349 2.2085 32.2933 1.29126 29.7039 1.29126C27.1486 1.29126 25.11 2.20276 23.5881 4.02578C22.0662 5.83733 21.3053 8.30815 21.3053 11.4382V15.1015C21.3053 17.0965 21.646 18.8621 22.3275 20.3985C23.0202 21.9234 24.0026 23.0987 25.2746 23.9242C26.5466 24.7497 28.0344 25.1624 29.738 25.1624C32.3274 25.1624 34.3774 24.2509 35.8879 22.4279C37.3984 20.6049 38.1536 18.1169 38.1536 14.9639V11.3178Z" fill="white"/>
<path d="M51.3733 12.2465L59.3801 0.706514H60.5385L51.9525 12.9689L60.8622 25.7472H59.7208L51.3733 13.6912L42.9918 25.7472H41.8844L50.7941 12.9689L42.2081 0.706514H43.3665L51.3733 12.2465Z" fill="white"/>
</g>
</svg>
